# xmcd
#
# Track frame offsets:
#	150
#	12382
#	26896
#	47282
#	65812
#	83456
#	97534
#	117457
#	136794
#	151535
#	162987
#
# Disc length: 2470 seconds
#
# Revision: 0
# Processed by: cddbd v1.5.2PL0 Copyright (c) Steve Scherf et al.
# Submitted via: FairStars CD Ripper 1.90
#
DISCID=7709a40b
DTITLE=Jack Bottleneck - Lost and Found
DYEAR=2015
DGENRE=Blues
TTITLE0=Nobody's Business (Traditional)
TTITLE1=Tango Till They're Sore (Tom Waits)
TTITLE2=Going To My Hometown (Rory Gallagher)
TTITLE3=Chocolate Jesus (Tom Waits, Kathleen Brennan)
TTITLE4=Dust My Broom (Elmore James)
TTITLE5=Lost Highway (Leon Payne)
TTITLE6=Should Have Known Better (Possesed by Paul James)
TTITLE7=No Way (Scott H Biram)
TTITLE8=Lost Case Of Being Found (Scott H Biram)
TTITLE9=Don't Forget To Miss Me (Harry Manx)
TTITLE10=Wayfaring Stranger (Traditional)
EXTD=
EXTT0=
EXTT1=
EXTT2=
EXTT3=
EXTT4=
EXTT5=
EXTT6=
EXTT7=
EXTT8=
EXTT9=
EXTT10=
PLAYORDER=
